<svg id="svg" version="1.1" xmlns="http://www.w3.org/2000/svg" xmlns:xlink="http://www.w3.org/1999/xlink" width="400" height="400" viewBox="0, 0, 400,400"><g id="svgg"><path id="path0" d="M183.704 11.709 C 42.996 24.238,-34.948 180.741,39.883 300.485 C 47.047 311.949,62.429 331.044,68.439 335.934 C 69.060 336.439,71.373 338.504,73.580 340.522 C 176.310 434.493,344.485 385.507,382.213 250.624 C 417.576 124.202,314.436 0.068,183.704 11.709 M217.037 20.184 C 299.809 28.037,366.505 91.387,378.666 173.704 C 392.571 267.832,330.669 356.991,237.778 376.628 C 125.209 400.425,19.477 314.967,19.477 200.185 C 19.477 103.025,94.261 24.793,192.222 19.476 C 196.806 19.228,211.321 19.641,217.037 20.184 M164.576 50.751 C 160.533 51.563,156.950 54.465,155.056 58.462 L 153.889 60.926 153.765 69.815 C 153.493 89.307,156.687 92.564,176.389 92.877 L 186.296 93.034 186.296 95.028 C 186.296 96.794,186.200 97.045,185.463 97.213 C 185.005 97.318,181.337 98.064,177.312 98.871 C 138.488 106.658,107.190 129.683,88.430 164.259 C 43.461 247.140,105.269 349.695,200.146 349.626 C 279.433 349.568,339.573 276.881,324.039 199.886 C 313.627 148.276,276.448 110.611,225.098 99.650 C 222.176 99.027,219.042 98.302,218.133 98.040 L 216.481 97.563 216.371 95.263 L 216.261 92.963 223.408 92.960 C 242.758 92.953,246.793 87.954,245.279 65.867 C 244.697 57.365,243.005 53.941,238.228 51.595 L 236.111 50.556 201.111 50.499 C 181.861 50.468,165.420 50.581,164.576 50.751 M233.909 63.468 C 234.368 65.297,233.917 79.855,233.381 80.500 C 232.925 81.047,231.475 81.111,219.452 81.111 L 206.032 81.111 205.378 87.434 C 203.697 103.694,206.092 107.112,221.605 110.591 C 269.613 121.356,301.955 153.211,312.381 200.000 C 326.299 262.461,282.042 327.310,219.259 336.448 C 155.918 345.667,100.093 306.741,87.580 244.630 C 75.348 183.916,115.675 123.540,177.222 110.418 C 190.621 107.561,192.512 106.880,194.945 104.038 C 197.636 100.894,198.292 95.133,197.080 85.278 L 196.568 81.111 182.531 81.111 C 166.402 81.111,166.247 81.088,165.555 78.516 C 164.905 76.102,165.208 63.408,165.926 62.954 C 166.265 62.741,179.597 62.602,200.086 62.598 L 233.690 62.593 233.909 63.468 M108.333 102.025 C 92.489 105.481,84.194 122.192,91.185 136.574 C 92.953 140.211,92.787 140.171,95.039 137.500 C 98.042 133.940,105.513 126.414,109.630 122.803 C 116.225 117.017,119.292 114.728,129.127 108.251 C 129.771 107.827,129.733 107.726,128.519 106.656 C 123.933 102.615,115.013 100.568,108.333 102.025 M281.852 102.208 C 277.535 102.815,274.477 103.998,270.653 106.540 L 268.103 108.235 271.154 110.070 C 282.506 116.894,294.895 127.582,302.735 137.315 C 305.380 140.598,305.240 140.599,306.825 137.303 C 315.291 119.701,300.934 99.524,281.852 102.208 M191.296 129.651 C 120.150 136.992,82.602 215.140,121.637 274.630 C 157.519 329.313,235.682 331.751,275.432 279.428 C 324.146 215.305,271.388 121.387,191.296 129.651 M212.667 141.306 C 268.159 149.615,298.791 208.549,273.912 259.139 C 243.894 320.182,157.953 320.361,127.203 259.444 C 97.248 200.101,146.905 131.458,212.667 141.306 M197.033 163.426 C 194.602 165.081,194.308 165.836,194.141 170.856 L 193.990 175.407 191.902 175.879 C 176.594 179.346,169.172 197.877,177.058 212.942 C 180.433 219.391,184.853 222.522,203.889 231.953 C 213.156 236.544,216.616 241.767,215.520 249.508 C 214.468 256.938,210.000 260.590,201.443 261.016 C 191.958 261.487,187.076 258.194,183.899 249.184 C 182.986 246.592,181.205 245.185,178.839 245.185 C 165.497 245.185,174.462 266.521,189.986 271.714 L 193.519 272.895 193.710 277.281 C 193.985 283.568,195.341 285.551,199.367 285.554 C 203.794 285.558,205.277 283.540,205.490 277.222 L 205.640 272.778 208.283 272.137 C 219.620 269.388,226.768 260.013,227.313 247.179 C 227.855 234.407,223.339 228.191,207.753 220.260 C 186.248 209.315,186.111 209.190,186.111 200.368 C 186.111 191.307,190.192 187.229,199.259 187.228 C 206.866 187.227,210.666 190.069,212.951 197.467 C 214.689 203.093,220.164 204.360,223.842 199.988 C 228.391 194.582,218.362 179.628,208.056 176.448 L 205.926 175.791 205.926 171.315 C 205.926 164.844,204.445 162.593,200.185 162.593 C 198.796 162.593,197.916 162.825,197.033 163.426 " stroke="none" fill="#fafafb" fill-rule="evenodd"></path><path id="path1" d="M183.704 20.581 C 100.451 28.702,34.045 91.310,21.884 173.148 C 5.662 282.307,89.750 380.086,199.815 380.050 C 323.666 380.009,410.408 258.594,370.369 141.321 C 343.770 63.410,265.257 12.627,183.704 20.581 M239.703 51.967 C 244.467 55.155,245.265 57.661,245.466 70.065 C 245.702 84.666,244.331 88.357,237.463 91.611 L 235.000 92.778 225.880 92.898 L 216.760 93.019 216.525 94.734 C 216.196 97.130,216.252 97.160,224.632 99.103 C 277.829 111.436,313.053 146.662,324.042 198.519 C 339.081 269.491,290.099 338.517,217.460 348.714 C 118.411 362.618,42.621 259.929,85.272 169.609 C 101.847 134.506,135.271 107.415,171.841 99.440 C 174.189 98.928,176.778 98.347,177.593 98.150 C 178.407 97.953,180.616 97.522,182.500 97.191 L 185.926 96.590 185.926 94.776 L 185.926 92.963 176.374 92.963 C 164.027 92.963,161.037 92.228,157.419 88.304 C 153.847 84.427,153.148 81.586,153.148 70.926 C 153.148 59.206,154.515 55.508,160.168 51.933 C 162.573 50.412,162.168 50.426,200.556 50.492 L 237.593 50.556 239.703 51.967 M166.000 63.407 C 165.024 64.384,165.412 78.310,166.449 79.516 L 167.343 80.556 181.980 80.671 L 196.618 80.787 196.810 81.782 C 199.499 95.727,197.797 103.855,191.526 107.012 C 189.343 108.111,188.571 108.313,177.222 110.755 C 114.274 124.302,73.944 186.973,88.689 248.333 C 103.345 309.320,159.227 346.066,221.294 335.528 C 280.742 325.435,323.047 265.802,313.105 206.111 C 304.914 156.931,271.628 122.243,221.780 110.939 C 205.558 107.261,202.818 103.156,205.083 85.926 L 205.741 80.926 219.321 80.741 C 226.791 80.639,233.031 80.426,233.189 80.268 C 233.579 79.878,233.860 67.602,233.538 65.027 L 233.280 62.963 199.862 62.963 C 174.364 62.963,166.339 63.068,166.000 63.407 M119.399 101.840 C 122.658 102.674,127.383 105.008,129.234 106.698 L 130.493 107.848 129.228 108.619 C 117.904 115.521,106.742 124.913,97.237 135.539 C 92.616 140.705,92.987 140.537,91.503 138.127 C 80.314 119.942,98.365 96.461,119.399 101.840 M289.653 102.010 C 306.378 105.555,314.801 124.118,306.378 138.866 C 305.162 140.995,305.295 141.048,302.225 137.222 C 294.636 127.765,280.267 115.513,269.907 109.666 C 267.327 108.210,267.332 108.302,269.728 106.524 C 275.373 102.335,283.017 100.603,289.653 102.010 M207.089 129.061 C 248.256 130.941,284.986 164.071,292.733 206.309 C 307.679 287.799,216.751 347.841,148.101 301.814 C 97.583 267.943,90.980 196.716,134.493 155.020 C 151.983 138.259,180.026 127.235,201.296 128.758 C 202.111 128.816,204.718 128.953,207.089 129.061 M192.222 141.133 C 134.862 147.434,101.573 207.946,127.377 259.007 C 158.108 319.817,244.000 319.639,273.726 258.704 C 302.009 200.728,255.850 134.144,192.222 141.133 M202.805 162.768 C 205.611 164.167,206.055 165.201,206.231 170.743 L 206.378 175.374 209.055 176.389 C 217.298 179.515,224.430 188.235,225.080 195.981 C 225.798 204.546,214.836 205.439,212.377 197.016 C 210.203 189.570,203.540 186.005,195.078 187.762 C 187.926 189.246,183.780 198.851,187.157 206.110 C 189.108 210.302,190.510 211.224,208.704 220.284 C 211.759 221.805,215.376 223.788,216.742 224.690 C 235.038 236.777,229.569 267.531,208.241 272.493 L 205.556 273.117 205.556 277.398 C 205.556 283.509,203.913 285.904,199.710 285.920 C 195.204 285.937,193.564 283.770,193.397 277.580 L 193.275 273.063 191.730 272.623 C 179.160 269.046,167.943 254.101,172.853 247.472 C 176.203 242.949,184.442 244.505,184.445 249.662 C 184.447 254.096,190.820 259.618,196.923 260.474 C 208.347 262.077,215.600 256.420,215.116 246.284 C 214.797 239.613,212.325 236.737,202.472 231.574 C 199.381 229.955,194.935 227.627,192.593 226.402 C 190.250 225.176,187.250 223.537,185.926 222.758 C 166.858 211.544,170.486 180.638,191.481 175.424 L 193.519 174.918 193.712 170.700 C 194.054 163.224,197.568 160.159,202.805 162.768 " stroke="none" fill="#4c44e4" fill-rule="evenodd"></path><path id="path2" d="M190.288 19.901 C 191.159 19.980,192.492 19.978,193.251 19.899 C 194.009 19.819,193.296 19.755,191.667 19.757 C 190.037 19.758,189.416 19.823,190.288 19.901 M206.954 19.901 C 207.825 19.980,209.159 19.978,209.917 19.899 C 210.676 19.819,209.963 19.755,208.333 19.757 C 206.704 19.758,206.083 19.823,206.954 19.901 M213.426 20.255 C 213.782 20.348,214.366 20.348,214.722 20.255 C 215.079 20.162,214.787 20.086,214.074 20.086 C 213.361 20.086,213.069 20.162,213.426 20.255 M217.500 20.626 C 217.856 20.719,218.440 20.719,218.796 20.626 C 219.153 20.533,218.861 20.456,218.148 20.456 C 217.435 20.456,217.144 20.533,217.500 20.626 M82.014 63.426 L 80.926 64.630 82.130 63.542 C 83.252 62.528,83.504 62.222,83.217 62.222 C 83.154 62.222,82.612 62.764,82.014 63.426 M182.842 62.870 C 192.045 62.925,207.211 62.925,216.546 62.870 C 225.881 62.815,218.352 62.770,199.815 62.770 C 181.278 62.770,173.640 62.815,182.842 62.870 M72.216 72.500 L 68.333 76.481 72.315 72.599 C 74.505 70.464,76.296 68.672,76.296 68.618 C 76.296 68.350,75.822 68.802,72.216 72.500 M326.296 71.227 C 326.296 71.291,326.838 71.832,327.500 72.431 L 328.704 73.519 327.616 72.315 C 326.602 71.193,326.296 70.941,326.296 71.227 M66.458 78.611 L 65.370 79.815 66.574 78.727 C 67.236 78.129,67.778 77.587,67.778 77.523 C 67.778 77.237,67.472 77.489,66.458 78.611 M176.204 81.018 C 179.921 81.078,186.005 81.078,189.722 81.018 C 193.440 80.958,190.398 80.908,182.963 80.908 C 175.528 80.908,172.486 80.958,176.204 81.018 M212.500 81.018 C 216.014 81.079,221.764 81.079,225.278 81.018 C 228.792 80.957,225.917 80.907,218.889 80.907 C 211.861 80.907,208.986 80.957,212.500 81.018 M186.032 94.630 C 186.035 95.648,186.107 96.021,186.192 95.458 C 186.277 94.895,186.275 94.062,186.187 93.606 C 186.099 93.150,186.029 93.611,186.032 94.630 M112.315 101.376 C 112.875 101.461,113.792 101.461,114.352 101.376 C 114.912 101.292,114.454 101.222,113.333 101.222 C 112.213 101.222,111.755 101.292,112.315 101.376 M102.955 129.167 L 99.815 132.407 103.056 129.267 C 106.065 126.351,106.465 125.926,106.196 125.926 C 106.140 125.926,104.682 127.384,102.955 129.167 M293.889 128.148 C 294.892 129.167,295.796 130.000,295.898 130.000 C 296.000 130.000,295.262 129.167,294.259 128.148 C 293.256 127.130,292.352 126.296,292.250 126.296 C 292.148 126.296,292.886 127.130,293.889 128.148 M196.759 129.154 C 197.319 129.239,198.236 129.239,198.796 129.154 C 199.356 129.069,198.898 129.000,197.778 129.000 C 196.657 129.000,196.199 129.069,196.759 129.154 M201.944 129.154 C 202.505 129.239,203.421 129.239,203.981 129.154 C 204.542 129.069,204.083 129.000,202.963 129.000 C 201.843 129.000,201.384 129.069,201.944 129.154 M119.433 141.944 L 117.222 144.259 119.537 142.049 C 121.687 139.995,122.021 139.630,121.748 139.630 C 121.690 139.630,120.649 140.671,119.433 141.944 M142.020 164.907 L 140.556 166.481 142.130 165.017 C 143.594 163.656,143.874 163.333,143.594 163.333 C 143.533 163.333,142.825 164.042,142.020 164.907 M257.778 163.820 C 257.778 163.883,258.319 164.425,258.981 165.023 L 260.185 166.111 259.097 164.907 C 258.083 163.785,257.778 163.533,257.778 163.820 M20.456 181.852 C 20.456 182.565,20.533 182.856,20.626 182.500 C 20.719 182.144,20.719 181.560,20.626 181.204 C 20.533 180.847,20.456 181.139,20.456 181.852 M20.086 185.926 C 20.086 186.639,20.162 186.931,20.255 186.574 C 20.348 186.218,20.348 185.634,20.255 185.278 C 20.162 184.921,20.086 185.213,20.086 185.926 M198.616 187.303 C 199.179 187.388,200.013 187.386,200.468 187.298 C 200.924 187.210,200.463 187.140,199.444 187.143 C 198.426 187.146,198.053 187.218,198.616 187.303 M19.757 191.667 C 19.758 193.296,19.823 193.917,19.901 193.046 C 19.980 192.175,19.978 190.841,19.899 190.083 C 19.819 189.324,19.755 190.037,19.757 191.667 M380.106 193.148 C 380.109 194.167,380.181 194.539,380.266 193.976 C 380.351 193.413,380.349 192.580,380.261 192.125 C 380.173 191.669,380.103 192.130,380.106 193.148 M380.093 206.852 C 380.098 207.667,380.173 207.956,380.262 207.496 C 380.351 207.035,380.347 206.368,380.254 206.014 C 380.162 205.660,380.089 206.037,380.093 206.852 M19.754 208.519 C 19.754 210.046,19.820 210.671,19.899 209.907 C 19.979 209.144,19.979 207.894,19.899 207.130 C 19.820 206.366,19.754 206.991,19.754 208.519 M282.711 222.222 C 282.711 223.546,282.778 224.088,282.861 223.426 C 282.943 222.764,282.943 221.681,282.861 221.019 C 282.778 220.356,282.711 220.898,282.711 222.222 M198.796 261.009 C 199.458 261.091,200.542 261.091,201.204 261.009 C 201.866 260.927,201.324 260.859,200.000 260.859 C 198.676 260.859,198.134 260.927,198.796 261.009 M219.427 266.389 L 217.963 267.963 219.537 266.499 C 221.001 265.137,221.281 264.815,221.001 264.815 C 220.941 264.815,220.232 265.523,219.427 266.389 M257.778 281.296 C 256.878 282.213,256.225 282.963,256.327 282.963 C 256.429 282.963,257.249 282.213,258.148 281.296 C 259.048 280.380,259.701 279.630,259.599 279.630 C 259.497 279.630,258.677 280.380,257.778 281.296 M266.658 289.537 L 263.519 292.778 266.759 289.638 C 269.769 286.721,270.169 286.296,269.899 286.296 C 269.844 286.296,268.385 287.755,266.658 289.537 M199.537 305.083 C 200.199 305.165,201.282 305.165,201.944 305.083 C 202.606 305.001,202.065 304.933,200.741 304.933 C 199.417 304.933,198.875 305.001,199.537 305.083 M241.481 307.593 C 240.157 308.286,239.204 308.861,239.362 308.871 C 239.756 308.895,244.074 306.701,244.074 306.476 C 244.074 306.227,244.161 306.190,241.481 307.593 M292.573 309.537 L 291.296 310.926 292.685 309.650 C 293.978 308.462,294.244 308.148,293.962 308.148 C 293.900 308.148,293.275 308.773,292.573 309.537 M199.352 317.673 C 199.912 317.758,200.829 317.758,201.389 317.673 C 201.949 317.588,201.491 317.518,200.370 317.518 C 199.250 317.518,198.792 317.588,199.352 317.673 M72.222 327.593 C 72.913 328.306,73.562 328.889,73.664 328.889 C 73.766 328.889,73.284 328.306,72.593 327.593 C 71.902 326.880,71.253 326.296,71.151 326.296 C 71.049 326.296,71.531 326.880,72.222 327.593 M204.172 337.673 C 204.735 337.758,205.568 337.756,206.024 337.668 C 206.479 337.580,206.019 337.511,205.000 337.513 C 203.981 337.516,203.609 337.588,204.172 337.673 M199.173 349.898 C 199.839 349.980,200.839 349.979,201.396 349.894 C 201.952 349.810,201.407 349.742,200.185 349.744 C 198.963 349.746,198.508 349.816,199.173 349.898 M192.500 380.261 C 192.958 380.350,193.708 380.350,194.167 380.261 C 194.625 380.173,194.250 380.101,193.333 380.101 C 192.417 380.101,192.042 380.173,192.500 380.261 M206.024 380.266 C 206.587 380.351,207.420 380.349,207.875 380.261 C 208.331 380.173,207.870 380.103,206.852 380.106 C 205.833 380.109,205.461 380.181,206.024 380.266 " stroke="none" fill="#8b86ee" fill-rule="evenodd"></path><path id="path3" d="M197.130 19.535 C 198.708 19.604,201.292 19.604,202.870 19.535 C 204.449 19.465,203.157 19.408,200.000 19.408 C 196.843 19.408,195.551 19.465,197.130 19.535 M187.130 19.885 C 187.486 19.978,188.069 19.978,188.426 19.885 C 188.782 19.792,188.491 19.716,187.778 19.716 C 187.065 19.716,186.773 19.792,187.130 19.885 M183.056 20.255 C 183.412 20.348,183.995 20.348,184.352 20.255 C 184.708 20.162,184.417 20.086,183.704 20.086 C 182.991 20.086,182.699 20.162,183.056 20.255 M178.981 20.626 C 179.338 20.719,179.921 20.719,180.278 20.626 C 180.634 20.533,180.343 20.456,179.630 20.456 C 178.917 20.456,178.625 20.533,178.981 20.626 M219.722 20.626 C 220.079 20.719,220.662 20.719,221.019 20.626 C 221.375 20.533,221.083 20.456,220.370 20.456 C 219.657 20.456,219.366 20.533,219.722 20.626 M153.488 70.556 C 153.488 74.426,153.543 75.959,153.610 73.962 C 153.676 71.966,153.676 68.799,153.609 66.925 C 153.542 65.052,153.487 66.685,153.488 70.556 M245.291 65.370 C 245.294 66.389,245.366 66.762,245.451 66.199 C 245.536 65.636,245.534 64.802,245.446 64.347 C 245.358 63.891,245.288 64.352,245.291 65.370 M165.340 70.926 C 165.340 74.796,165.395 76.329,165.462 74.333 C 165.528 72.336,165.528 69.169,165.461 67.296 C 165.394 65.422,165.339 67.056,165.340 70.926 M324.074 69.074 C 325.181 70.194,326.169 71.111,326.271 71.111 C 326.373 71.111,325.551 70.194,324.444 69.074 C 323.338 67.954,322.349 67.037,322.248 67.037 C 322.146 67.037,322.968 67.954,324.074 69.074 M330.741 75.741 C 332.053 77.065,333.210 78.148,333.312 78.148 C 333.414 78.148,332.423 77.065,331.111 75.741 C 329.799 74.417,328.642 73.333,328.540 73.333 C 328.438 73.333,329.428 74.417,330.741 75.741 M245.279 77.222 C 245.283 78.037,245.359 78.327,245.447 77.866 C 245.536 77.405,245.532 76.739,245.440 76.385 C 245.347 76.030,245.274 76.407,245.279 77.222 M334.630 80.000 C 335.425 80.815,336.160 81.481,336.261 81.481 C 336.363 81.481,335.796 80.815,335.000 80.000 C 334.204 79.185,333.470 78.519,333.368 78.519 C 333.266 78.519,333.834 79.185,334.630 80.000 M338.879 84.907 C 340.165 86.486,341.287 87.778,341.374 87.778 C 341.625 87.778,338.159 83.456,337.312 82.713 C 336.888 82.341,337.593 83.329,338.879 84.907 M241.091 88.796 L 239.815 90.185 241.204 88.909 C 242.496 87.721,242.763 87.407,242.480 87.407 C 242.418 87.407,241.793 88.032,241.091 88.796 M197.493 89.259 C 197.493 89.972,197.570 90.264,197.663 89.907 C 197.756 89.551,197.756 88.968,197.663 88.611 C 197.570 88.255,197.493 88.546,197.493 89.259 M345.185 92.963 C 345.620 93.574,346.060 94.074,346.162 94.074 C 346.263 94.074,345.991 93.574,345.556 92.963 C 345.120 92.352,344.681 91.852,344.579 91.852 C 344.477 91.852,344.750 92.352,345.185 92.963 M347.407 96.111 C 348.038 97.028,348.637 97.778,348.739 97.778 C 348.841 97.778,348.408 97.028,347.778 96.111 C 347.147 95.194,346.548 94.444,346.446 94.444 C 346.344 94.444,346.777 95.194,347.407 96.111 M350.219 100.093 C 350.971 101.264,351.656 102.222,351.740 102.222 C 351.988 102.222,350.648 100.076,349.713 98.976 C 349.240 98.419,349.468 98.921,350.219 100.093 M281.944 102.107 C 282.301 102.200,282.884 102.200,283.241 102.107 C 283.597 102.014,283.306 101.938,282.593 101.938 C 281.880 101.938,281.588 102.014,281.944 102.107 M352.175 103.148 C 352.375 103.556,352.810 104.222,353.141 104.630 L 353.745 105.370 353.381 104.630 C 353.181 104.222,352.746 103.556,352.414 103.148 L 351.811 102.407 352.175 103.148 M208.148 105.370 C 208.839 106.083,209.488 106.667,209.590 106.667 C 209.692 106.667,209.210 106.083,208.519 105.370 C 207.827 104.657,207.179 104.074,207.077 104.074 C 206.975 104.074,207.457 104.657,208.148 105.370 M354.027 106.111 C 354.227 106.519,354.662 107.185,354.993 107.593 L 355.596 108.333 355.233 107.593 C 355.033 107.185,354.598 106.519,354.266 106.111 L 353.663 105.370 354.027 106.111 M95.543 108.796 L 93.519 110.926 95.648 108.902 C 96.819 107.788,97.778 106.830,97.778 106.772 C 97.778 106.497,97.424 106.818,95.543 108.796 M356.111 109.630 C 356.427 110.241,356.769 110.741,356.871 110.741 C 356.973 110.741,356.797 110.241,356.481 109.630 C 356.165 109.019,355.824 108.519,355.722 108.519 C 355.620 108.519,355.795 109.019,356.111 109.630 M358.148 113.333 C 358.564 114.148,358.987 114.815,359.089 114.815 C 359.191 114.815,358.934 114.148,358.519 113.333 C 358.103 112.519,357.679 111.852,357.578 111.852 C 357.476 111.852,357.732 112.519,358.148 113.333 M361.005 118.689 C 361.962 120.616,362.805 122.134,362.877 122.061 C 363.041 121.897,359.689 115.185,359.443 115.185 C 359.345 115.185,360.047 116.762,361.005 118.689 M290.556 124.815 C 291.351 125.630,292.086 126.296,292.187 126.296 C 292.289 126.296,291.722 125.630,290.926 124.815 C 290.130 124.000,289.396 123.333,289.294 123.333 C 289.192 123.333,289.760 124.000,290.556 124.815 M364.108 125.000 C 364.108 125.204,364.509 126.120,365.000 127.037 C 365.491 127.954,365.892 128.537,365.892 128.333 C 365.892 128.130,365.491 127.213,365.000 126.296 C 364.509 125.380,364.108 124.796,364.108 125.000 M365.952 129.074 C 365.952 129.278,366.190 129.861,366.481 130.370 C 366.773 130.880,367.011 131.130,367.011 130.926 C 367.011 130.722,366.773 130.139,366.481 129.630 C 366.190 129.120,365.952 128.870,365.952 129.074 M192.504 129.521 C 192.965 129.610,193.632 129.606,193.986 129.514 C 194.340 129.421,193.963 129.349,193.148 129.353 C 192.333 129.357,192.044 129.433,192.504 129.521 M207.130 129.515 C 207.486 129.608,208.069 129.608,208.426 129.515 C 208.782 129.421,208.491 129.345,207.778 129.345 C 207.065 129.345,206.773 129.421,207.130 129.515 M110.734 133.981 L 106.852 137.963 110.833 134.081 C 113.023 131.945,114.815 130.154,114.815 130.099 C 114.815 129.832,114.340 130.283,110.734 133.981 M289.444 134.074 C 291.678 136.315,293.589 138.148,293.691 138.148 C 293.793 138.148,292.049 136.315,289.815 134.074 C 287.581 131.833,285.670 130.000,285.568 130.000 C 285.466 130.000,287.211 131.833,289.444 134.074 M297.593 131.852 C 298.596 132.870,299.500 133.704,299.602 133.704 C 299.704 133.704,298.966 132.870,297.963 131.852 C 296.960 130.833,296.056 130.000,295.954 130.000 C 295.852 130.000,296.589 130.833,297.593 131.852 M98.499 133.611 L 97.222 135.000 98.611 133.724 C 99.375 133.022,100.000 132.397,100.000 132.335 C 100.000 132.052,99.687 132.318,98.499 133.611 M300.000 134.560 C 300.000 134.624,300.542 135.166,301.204 135.764 L 302.407 136.852 301.320 135.648 C 300.306 134.526,300.000 134.274,300.000 134.560 M276.852 138.148 C 277.855 139.167,278.759 140.000,278.861 140.000 C 278.963 140.000,278.225 139.167,277.222 138.148 C 276.219 137.130,275.315 136.296,275.213 136.296 C 275.111 136.296,275.849 137.130,276.852 138.148 M122.754 138.611 L 121.667 139.815 122.870 138.727 C 123.992 137.713,124.244 137.407,123.958 137.407 C 123.894 137.407,123.353 137.949,122.754 138.611 M294.444 139.375 C 294.444 139.439,294.986 139.981,295.648 140.579 L 296.852 141.667 295.764 140.463 C 294.750 139.341,294.444 139.089,294.444 139.375 M198.611 140.644 C 199.782 140.718,201.699 140.718,202.870 140.644 C 204.042 140.571,203.083 140.510,200.741 140.510 C 198.398 140.510,197.440 140.571,198.611 140.644 M116.088 145.278 L 115.000 146.481 116.204 145.394 C 117.326 144.380,117.578 144.074,117.292 144.074 C 117.228 144.074,116.686 144.616,116.088 145.278 M284.799 146.019 C 285.707 146.986,286.499 147.778,286.559 147.778 C 286.837 147.778,286.543 147.445,284.907 145.910 L 283.148 144.259 284.799 146.019 M133.141 156.759 L 129.444 160.556 133.241 156.859 C 135.329 154.826,137.037 153.117,137.037 153.063 C 137.037 152.795,136.575 153.233,133.141 156.759 M265.556 156.111 C 266.868 157.435,268.025 158.519,268.127 158.519 C 268.229 158.519,267.238 157.435,265.926 156.111 C 264.614 154.787,263.457 153.704,263.355 153.704 C 263.253 153.704,264.243 154.787,265.556 156.111 M269.630 160.486 C 269.630 160.550,270.171 161.092,270.833 161.690 L 272.037 162.778 270.949 161.574 C 269.935 160.452,269.630 160.200,269.630 160.486 M256.111 162.222 C 256.907 163.037,257.641 163.704,257.743 163.704 C 257.845 163.704,257.277 163.037,256.481 162.222 C 255.686 161.407,254.952 160.741,254.850 160.741 C 254.748 160.741,255.315 161.407,256.111 162.222 M199.541 162.484 C 200.002 162.573,200.669 162.569,201.023 162.477 C 201.377 162.384,201.000 162.312,200.185 162.316 C 199.370 162.320,199.081 162.396,199.541 162.484 M312.297 165.733 C 312.740 166.645,313.166 167.328,313.244 167.250 C 313.411 167.082,311.915 164.074,311.664 164.074 C 311.569 164.074,311.854 164.820,312.297 165.733 M261.296 167.407 C 262.092 168.222,262.826 168.889,262.928 168.889 C 263.030 168.889,262.462 168.222,261.667 167.407 C 260.871 166.593,260.137 165.926,260.035 165.926 C 259.933 165.926,260.501 166.593,261.296 167.407 M139.421 167.500 L 138.333 168.704 139.537 167.616 C 140.199 167.018,140.741 166.476,140.741 166.412 C 140.741 166.126,140.435 166.378,139.421 167.500 M379.353 180.185 C 379.357 181.000,379.433 181.290,379.521 180.829 C 379.610 180.368,379.606 179.702,379.514 179.348 C 379.421 178.993,379.349 179.370,379.353 180.185 M180.538 181.944 L 179.074 183.519 180.648 182.054 C 182.112 180.693,182.392 180.370,182.112 180.370 C 182.052 180.370,181.343 181.079,180.538 181.944 M379.723 184.259 C 379.727 185.074,379.803 185.364,379.892 184.903 C 379.980 184.442,379.977 183.776,379.884 183.422 C 379.791 183.068,379.719 183.444,379.723 184.259 M380.115 189.444 C 380.117 190.667,380.186 191.122,380.268 190.456 C 380.351 189.791,380.349 188.791,380.265 188.234 C 380.180 187.678,380.113 188.222,380.115 189.444 M19.409 200.185 C 19.410 203.444,19.466 204.728,19.535 203.038 C 19.604 201.348,19.603 198.681,19.534 197.112 C 19.465 195.543,19.409 196.926,19.409 200.185 M224.916 196.667 C 224.916 197.583,224.988 197.958,225.076 197.500 C 225.164 197.042,225.164 196.292,225.076 195.833 C 224.988 195.375,224.916 195.750,224.916 196.667 M380.517 200.185 C 380.517 203.037,380.575 204.155,380.646 202.669 C 380.716 201.183,380.716 198.850,380.645 197.484 C 380.574 196.118,380.516 197.333,380.517 200.185 M380.122 210.556 C 380.123 211.981,380.190 212.519,380.270 211.751 C 380.350 210.983,380.349 209.816,380.267 209.158 C 380.185 208.501,380.120 209.130,380.122 210.556 M19.716 212.222 C 19.716 212.935,19.792 213.227,19.885 212.870 C 19.978 212.514,19.978 211.931,19.885 211.574 C 19.792 211.218,19.716 211.509,19.716 212.222 M175.926 211.253 C 175.926 211.650,177.028 213.704,177.241 213.704 C 177.343 213.704,177.151 213.162,176.814 212.500 C 176.127 211.148,175.926 210.866,175.926 211.253 M379.736 215.741 C 379.738 216.759,379.810 217.132,379.895 216.569 C 379.981 216.006,379.978 215.173,379.890 214.717 C 379.802 214.262,379.733 214.722,379.736 215.741 M293.797 215.741 C 293.801 216.556,293.877 216.845,293.966 216.385 C 294.054 215.924,294.051 215.257,293.958 214.903 C 293.865 214.549,293.793 214.926,293.797 215.741 M20.086 216.296 C 20.086 217.009,20.162 217.301,20.255 216.944 C 20.348 216.588,20.348 216.005,20.255 215.648 C 20.162 215.292,20.086 215.583,20.086 216.296 M73.419 216.667 C 73.419 217.380,73.495 217.671,73.589 217.315 C 73.682 216.958,73.682 216.375,73.589 216.019 C 73.495 215.662,73.419 215.954,73.419 216.667 M326.397 217.037 C 326.397 217.954,326.469 218.329,326.558 217.870 C 326.646 217.412,326.646 216.662,326.558 216.204 C 326.469 215.745,326.397 216.120,326.397 217.037 M118.293 221.852 C 118.293 224.602,118.352 225.727,118.423 224.352 C 118.494 222.977,118.494 220.727,118.423 219.352 C 118.352 217.977,118.293 219.102,118.293 221.852 M379.360 220.000 C 379.360 220.917,379.432 221.292,379.521 220.833 C 379.609 220.375,379.609 219.625,379.521 219.167 C 379.432 218.708,379.360 219.083,379.360 220.000 M85.325 222.963 C 85.325 225.306,85.385 226.264,85.459 225.093 C 85.532 223.921,85.532 222.005,85.459 220.833 C 85.385 219.662,85.325 220.620,85.325 222.963 M314.944 221.852 C 314.944 223.583,315.008 224.292,315.086 223.426 C 315.164 222.560,315.164 221.144,315.086 220.278 C 315.008 219.412,314.944 220.120,314.944 221.852 M20.456 220.370 C 20.456 221.083,20.533 221.375,20.626 221.019 C 20.719 220.662,20.719 220.079,20.626 219.722 C 20.533 219.366,20.456 219.657,20.456 220.370 M294.213 223.889 C 294.213 226.130,294.274 226.999,294.348 225.820 C 294.422 224.641,294.421 222.808,294.347 221.746 C 294.272 220.684,294.212 221.648,294.213 223.889 M314.901 226.667 C 314.901 227.380,314.977 227.671,315.070 227.315 C 315.163 226.958,315.163 226.375,315.070 226.019 C 314.977 225.662,314.901 225.954,314.901 226.667 M220.370 228.333 C 221.477 229.454,222.465 230.370,222.567 230.370 C 222.669 230.370,221.847 229.454,220.741 228.333 C 219.634 227.213,218.646 226.296,218.544 226.296 C 218.442 226.296,219.264 227.213,220.370 228.333 M326.397 231.111 C 326.397 232.028,326.469 232.403,326.558 231.944 C 326.646 231.486,326.646 230.736,326.558 230.278 C 326.469 229.819,326.397 230.194,326.397 231.111 M85.649 231.296 C 85.653 232.111,85.729 232.401,85.818 231.940 C 85.906 231.479,85.903 230.813,85.810 230.459 C 85.717 230.105,85.645 230.481,85.649 231.296 M293.790 232.222 C 293.790 232.935,293.866 233.227,293.959 232.870 C 294.052 232.514,294.052 231.931,293.959 231.574 C 293.866 231.218,293.790 231.509,293.790 232.222 M211.667 237.407 C 212.462 238.222,213.197 238.889,213.298 238.889 C 213.400 238.889,212.833 238.222,212.037 237.407 C 211.241 236.593,210.507 235.926,210.405 235.926 C 210.303 235.926,210.871 236.593,211.667 237.407 M227.534 245.370 C 227.536 247.000,227.601 247.621,227.679 246.749 C 227.757 245.878,227.756 244.545,227.677 243.787 C 227.597 243.028,227.533 243.741,227.534 245.370 M178.060 245.077 C 178.521 245.165,179.187 245.162,179.541 245.069 C 179.895 244.977,179.519 244.904,178.704 244.908 C 177.889 244.912,177.599 244.988,178.060 245.077 M173.959 246.759 C 172.806 247.901,172.801 247.916,173.872 247.040 C 174.492 246.532,175.158 245.991,175.352 245.836 C 175.545 245.682,175.585 245.556,175.439 245.556 C 175.293 245.556,174.627 246.097,173.959 246.759 M179.074 265.185 C 180.284 266.407,181.356 267.407,181.458 267.407 C 181.560 267.407,180.654 266.407,179.444 265.185 C 178.235 263.963,177.162 262.963,177.060 262.963 C 176.958 262.963,177.865 263.963,179.074 265.185 M260.721 278.426 L 259.444 279.815 260.833 278.538 C 261.597 277.836,262.222 277.211,262.222 277.150 C 262.222 276.867,261.909 277.133,260.721 278.426 M85.926 277.543 C 85.926 277.944,87.767 281.481,87.975 281.481 C 88.077 281.481,87.721 280.606,87.184 279.537 C 86.151 277.480,85.926 277.124,85.926 277.543 M142.407 280.741 C 144.232 282.574,145.809 284.074,145.910 284.074 C 146.012 284.074,144.603 282.574,142.778 280.741 C 140.953 278.907,139.377 277.407,139.275 277.407 C 139.173 277.407,140.583 278.907,142.407 280.741 M362.282 278.720 C 361.662 280.082,361.780 280.372,362.451 279.134 C 362.765 278.556,362.952 278.013,362.867 277.929 C 362.782 277.844,362.519 278.200,362.282 278.720 M254.795 284.352 L 253.519 285.741 254.907 284.464 C 256.200 283.276,256.467 282.963,256.184 282.963 C 256.122 282.963,255.497 283.588,254.795 284.352 M133.519 289.630 C 135.752 291.870,137.663 293.704,137.765 293.704 C 137.867 293.704,136.123 291.870,133.889 289.630 C 131.655 287.389,129.744 285.556,129.642 285.556 C 129.540 285.556,131.285 287.389,133.519 289.630 M285.347 299.722 L 284.259 300.926 285.463 299.838 C 286.125 299.240,286.667 298.698,286.667 298.634 C 286.667 298.348,286.361 298.600,285.347 299.722 M119.444 304.815 C 121.678 307.056,123.589 308.889,123.691 308.889 C 123.793 308.889,122.049 307.056,119.815 304.815 C 117.581 302.574,115.670 300.741,115.568 300.741 C 115.466 300.741,117.211 302.574,119.444 304.815 M280.176 305.278 L 277.222 308.333 280.278 305.379 C 283.116 302.635,283.502 302.222,283.232 302.222 C 283.176 302.222,281.801 303.597,280.176 305.278 M196.024 305.081 C 196.587 305.166,197.420 305.163,197.875 305.076 C 198.331 304.988,197.870 304.918,196.852 304.921 C 195.833 304.924,195.461 304.995,196.024 305.081 M203.796 305.080 C 204.356 305.165,205.273 305.165,205.833 305.080 C 206.394 304.995,205.935 304.926,204.815 304.926 C 203.694 304.926,203.236 304.995,203.796 305.080 M103.704 305.301 C 103.704 305.365,104.245 305.906,104.907 306.505 L 106.111 307.593 105.023 306.389 C 104.009 305.267,103.704 305.015,103.704 305.301 M111.111 313.148 C 113.651 315.694,115.813 317.778,115.915 317.778 C 116.017 317.778,114.022 315.694,111.481 313.148 C 108.941 310.602,106.780 308.519,106.678 308.519 C 106.576 308.519,108.571 310.602,111.111 313.148 M275.165 309.907 L 273.889 311.296 275.278 310.020 C 276.571 308.832,276.837 308.519,276.554 308.519 C 276.492 308.519,275.867 309.144,275.165 309.907 M288.694 313.426 L 286.111 316.111 288.796 313.528 C 291.290 311.130,291.651 310.741,291.379 310.741 C 291.323 310.741,290.114 311.949,288.694 313.426 M337.569 316.759 L 336.481 317.963 337.685 316.875 C 338.347 316.277,338.889 315.735,338.889 315.671 C 338.889 315.385,338.583 315.637,337.569 316.759 M334.983 319.722 L 333.519 321.296 335.093 319.832 C 336.556 318.471,336.837 318.148,336.557 318.148 C 336.496 318.148,335.788 318.856,334.983 319.722 M64.815 319.815 C 65.506 320.528,66.155 321.111,66.256 321.111 C 66.358 321.111,65.876 320.528,65.185 319.815 C 64.494 319.102,63.845 318.519,63.744 318.519 C 63.642 318.519,64.124 319.102,64.815 319.815 M330.741 324.259 C 329.223 325.787,328.065 327.037,328.167 327.037 C 328.269 327.037,329.594 325.787,331.111 324.259 C 332.629 322.731,333.787 321.481,333.685 321.481 C 333.583 321.481,332.258 322.731,330.741 324.259 M68.889 324.259 C 69.995 325.380,70.984 326.296,71.086 326.296 C 71.188 326.296,70.366 325.380,69.259 324.259 C 68.153 323.139,67.164 322.222,67.062 322.222 C 66.960 322.222,67.782 323.139,68.889 324.259 M324.249 330.833 L 321.667 333.519 324.352 330.936 C 326.846 328.537,327.206 328.148,326.935 328.148 C 326.878 328.148,325.670 329.356,324.249 330.833 M75.556 330.926 C 76.662 332.046,77.651 332.963,77.752 332.963 C 77.854 332.963,77.032 332.046,75.926 330.926 C 74.819 329.806,73.831 328.889,73.729 328.889 C 73.627 328.889,74.449 329.806,75.556 330.926 M80.000 335.000 C 80.691 335.713,81.340 336.296,81.442 336.296 C 81.543 336.296,81.061 335.713,80.370 335.000 C 79.679 334.287,79.031 333.704,78.929 333.704 C 78.827 333.704,79.309 334.287,80.000 335.000 M319.427 335.278 L 317.963 336.852 319.537 335.388 C 321.001 334.026,321.281 333.704,321.001 333.704 C 320.941 333.704,320.232 334.412,319.427 335.278 M316.458 337.870 L 315.370 339.074 316.574 337.986 C 317.236 337.388,317.778 336.846,317.778 336.783 C 317.778 336.496,317.472 336.748,316.458 337.870 M211.574 337.292 C 211.931 337.386,212.514 337.386,212.870 337.292 C 213.227 337.199,212.935 337.123,212.222 337.123 C 211.509 337.123,211.218 337.199,211.574 337.292 M191.764 337.669 C 192.224 337.758,192.891 337.755,193.245 337.662 C 193.599 337.569,193.222 337.497,192.407 337.501 C 191.593 337.505,191.303 337.581,191.764 337.669 M207.130 337.663 C 207.486 337.756,208.069 337.756,208.426 337.663 C 208.782 337.570,208.491 337.493,207.778 337.493 C 207.065 337.493,206.773 337.570,207.130 337.663 M308.148 344.490 C 306.857 345.621,306.857 345.623,308.044 344.833 C 308.700 344.397,309.335 343.881,309.455 343.686 C 309.812 343.108,309.516 343.290,308.148 344.490 M304.907 346.703 C 304.042 347.317,303.333 347.901,303.333 348.001 C 303.333 348.102,304.083 347.668,305.000 347.037 C 305.917 346.406,306.667 345.815,306.667 345.723 C 306.667 345.468,306.596 345.507,304.907 346.703 M301.667 349.107 L 300.556 350.061 301.759 349.265 C 302.421 348.827,302.963 348.396,302.963 348.308 C 302.963 348.031,302.806 348.127,301.667 349.107 M297.870 351.524 C 296.608 352.333,296.199 352.875,297.315 352.262 C 298.165 351.795,299.496 350.766,299.259 350.759 C 299.157 350.756,298.532 351.100,297.870 351.524 M294.907 353.376 C 293.645 354.184,293.236 354.727,294.352 354.114 C 295.202 353.647,296.533 352.618,296.296 352.611 C 296.194 352.608,295.569 352.952,294.907 353.376 M291.756 355.324 C 289.977 356.417,289.480 356.934,290.926 356.186 C 292.087 355.586,293.653 354.468,293.333 354.468 C 293.231 354.468,292.522 354.853,291.756 355.324 M287.685 357.617 C 286.718 358.121,285.926 358.616,285.926 358.717 C 285.926 358.818,286.759 358.479,287.778 357.963 C 288.796 357.447,289.630 356.944,289.630 356.846 C 289.630 356.601,289.663 356.587,287.685 357.617 M283.611 359.839 C 282.644 360.343,281.852 360.838,281.852 360.939 C 281.852 361.041,282.685 360.701,283.704 360.185 C 284.722 359.669,285.556 359.166,285.556 359.068 C 285.556 358.823,285.589 358.810,283.611 359.839 M119.259 361.667 C 119.769 361.958,120.352 362.196,120.556 362.196 C 120.759 362.196,120.509 361.958,120.000 361.667 C 119.491 361.376,118.907 361.137,118.704 361.137 C 118.500 361.137,118.750 361.376,119.259 361.667 M278.519 362.407 C 277.194 363.101,276.278 363.668,276.481 363.668 C 276.685 363.668,277.935 363.101,279.259 362.407 C 280.583 361.714,281.500 361.147,281.296 361.147 C 281.093 361.147,279.843 361.714,278.519 362.407 M272.593 365.185 C 271.880 365.576,271.463 365.895,271.667 365.895 C 271.870 365.895,272.620 365.576,273.333 365.185 C 274.046 364.795,274.463 364.475,274.259 364.475 C 274.056 364.475,273.306 364.795,272.593 365.185 M179.537 379.521 C 179.995 379.609,180.745 379.609,181.204 379.521 C 181.662 379.432,181.287 379.360,180.370 379.360 C 179.454 379.360,179.079 379.432,179.537 379.521 M219.171 379.521 C 219.632 379.610,220.298 379.606,220.652 379.514 C 221.007 379.421,220.630 379.349,219.815 379.353 C 219.000 379.357,218.710 379.433,219.171 379.521 M183.611 379.891 C 184.069 379.979,184.819 379.979,185.278 379.891 C 185.736 379.803,185.361 379.731,184.444 379.731 C 183.528 379.731,183.153 379.803,183.611 379.891 M215.097 379.892 C 215.558 379.980,216.224 379.977,216.578 379.884 C 216.932 379.791,216.556 379.719,215.741 379.723 C 214.926 379.727,214.636 379.803,215.097 379.892 M188.047 380.267 C 188.705 380.349,189.871 380.350,190.640 380.270 C 191.408 380.190,190.870 380.123,189.444 380.122 C 188.019 380.120,187.390 380.185,188.047 380.267 M209.537 380.268 C 210.199 380.350,211.282 380.350,211.944 380.268 C 212.606 380.186,212.065 380.119,210.741 380.119 C 209.417 380.119,208.875 380.186,209.537 380.268 M197.500 380.645 C 198.875 380.716,201.125 380.716,202.500 380.645 C 203.875 380.574,202.750 380.515,200.000 380.515 C 197.250 380.515,196.125 380.574,197.500 380.645 " stroke="none" fill="#a49cf4" fill-rule="evenodd"></path><path id="path4" d="M197.130 19.905 C 198.708 19.974,201.292 19.974,202.870 19.905 C 204.449 19.836,203.157 19.779,200.000 19.779 C 196.843 19.779,195.551 19.836,197.130 19.905 M161.274 51.317 C 160.567 51.883,160.567 51.887,161.296 51.552 C 161.704 51.365,162.287 51.119,162.593 51.005 C 163.072 50.827,163.070 50.795,162.571 50.770 C 162.253 50.754,161.670 51.000,161.274 51.317 M82.754 63.056 L 81.667 64.259 82.870 63.171 C 83.992 62.157,84.244 61.852,83.958 61.852 C 83.894 61.852,83.353 62.394,82.754 63.056 M153.117 70.741 C 153.117 74.509,153.172 76.051,153.239 74.167 C 153.306 72.282,153.306 69.199,153.239 67.315 C 153.172 65.431,153.117 66.972,153.117 70.741 M318.519 64.190 C 318.519 64.254,319.060 64.795,319.722 65.394 L 320.926 66.481 319.838 65.278 C 318.824 64.156,318.519 63.904,318.519 64.190 M79.610 65.833 L 78.333 67.222 79.722 65.946 C 81.015 64.758,81.281 64.444,80.999 64.444 C 80.937 64.444,80.312 65.069,79.610 65.833 M233.850 71.296 C 233.850 74.148,233.909 75.266,233.979 73.780 C 234.050 72.294,234.049 69.961,233.978 68.595 C 233.907 67.229,233.849 68.444,233.850 71.296 M323.889 69.259 C 325.098 70.481,326.171 71.481,326.273 71.481 C 326.375 71.481,325.469 70.481,324.259 69.259 C 323.050 68.037,321.977 67.037,321.875 67.037 C 321.773 67.037,322.679 68.037,323.889 69.259 M72.587 72.500 L 67.593 77.593 72.685 72.598 C 75.486 69.851,77.778 67.559,77.778 67.505 C 77.778 67.240,77.227 67.769,72.587 72.500 M330.556 75.926 C 331.765 77.148,332.838 78.148,332.940 78.148 C 333.042 78.148,332.135 77.148,330.926 75.926 C 329.716 74.704,328.644 73.704,328.542 73.704 C 328.440 73.704,329.346 74.704,330.556 75.926 M233.419 78.889 C 233.419 79.602,233.495 79.894,233.589 79.537 C 233.682 79.181,233.682 78.597,233.589 78.241 C 233.495 77.884,233.419 78.176,233.419 78.889 M65.536 79.907 L 64.259 81.296 65.648 80.020 C 66.941 78.832,67.207 78.519,66.925 78.519 C 66.863 78.519,66.238 79.144,65.536 79.907 M334.444 80.185 C 335.135 80.898,335.784 81.481,335.886 81.481 C 335.988 81.481,335.506 80.898,334.815 80.185 C 334.124 79.472,333.475 78.889,333.373 78.889 C 333.271 78.889,333.753 79.472,334.444 80.185 M62.754 83.056 L 61.667 84.259 62.870 83.171 C 63.992 82.157,64.244 81.852,63.958 81.852 C 63.894 81.852,63.353 82.394,62.754 83.056 M205.271 84.815 C 205.271 85.528,205.347 85.819,205.440 85.463 C 205.534 85.106,205.534 84.523,205.440 84.167 C 205.347 83.810,205.271 84.102,205.271 84.815 M204.901 87.778 C 204.901 88.491,204.977 88.782,205.070 88.426 C 205.163 88.069,205.163 87.486,205.070 87.130 C 204.977 86.773,204.901 87.065,204.901 87.778 M204.585 94.074 C 204.585 96.417,204.645 97.375,204.718 96.204 C 204.792 95.032,204.792 93.116,204.718 91.944 C 204.645 90.773,204.585 91.731,204.585 94.074 M197.889 94.074 C 197.889 95.194,197.958 95.653,198.043 95.093 C 198.128 94.532,198.128 93.616,198.043 93.056 C 197.958 92.495,197.889 92.954,197.889 94.074 M109.722 101.366 C 110.079 101.460,110.662 101.460,111.019 101.366 C 111.375 101.273,111.083 101.197,110.370 101.197 C 109.657 101.197,109.366 101.273,109.722 101.366 M283.067 101.754 C 284.040 101.831,285.540 101.830,286.400 101.752 C 287.260 101.674,286.463 101.612,284.630 101.613 C 282.796 101.614,282.093 101.678,283.067 101.754 M95.543 108.426 L 93.519 110.556 95.648 108.531 C 97.627 106.650,97.947 106.296,97.673 106.296 C 97.615 106.296,96.656 107.255,95.543 108.426 M300.000 106.783 C 300.000 106.846,300.542 107.388,301.204 107.986 L 302.407 109.074 301.320 107.870 C 300.306 106.748,300.000 106.496,300.000 106.783 M255.586 109.771 C 255.964 110.116,260.370 112.214,260.370 112.048 C 260.370 111.840,256.092 109.630,255.690 109.630 C 255.548 109.630,255.502 109.693,255.586 109.771 M88.275 126.111 C 88.276 127.741,88.342 128.361,88.420 127.490 C 88.498 126.619,88.497 125.286,88.417 124.527 C 88.338 123.769,88.274 124.481,88.275 126.111 M282.222 126.783 C 282.222 126.846,282.764 127.388,283.426 127.986 L 284.630 129.074 283.542 127.870 C 282.528 126.748,282.222 126.496,282.222 126.783 M192.877 129.157 C 193.543 129.240,194.543 129.238,195.099 129.154 C 195.656 129.069,195.111 129.002,193.889 129.004 C 192.667 129.006,192.211 129.075,192.877 129.157 M205.648 129.154 C 206.208 129.239,207.125 129.239,207.685 129.154 C 208.245 129.069,207.787 129.000,206.667 129.000 C 205.546 129.000,205.088 129.069,205.648 129.154 M188.611 129.515 C 188.968 129.608,189.551 129.608,189.907 129.515 C 190.264 129.421,189.972 129.345,189.259 129.345 C 188.546 129.345,188.255 129.421,188.611 129.515 M210.463 129.515 C 210.819 129.608,211.403 129.608,211.759 129.515 C 212.116 129.421,211.824 129.345,211.111 129.345 C 210.398 129.345,210.106 129.421,210.463 129.515 M110.549 133.796 L 106.481 137.963 110.648 133.895 C 112.940 131.658,114.815 129.783,114.815 129.729 C 114.815 129.461,114.328 129.926,110.549 133.796 M289.444 133.704 C 291.678 135.944,293.589 137.778,293.691 137.778 C 293.793 137.778,292.049 135.944,289.815 133.704 C 287.581 131.463,285.670 129.630,285.568 129.630 C 285.466 129.630,287.211 131.463,289.444 133.704 M240.401 137.917 C 240.780 138.260,243.704 139.625,243.704 139.459 C 243.704 139.249,240.909 137.778,240.509 137.778 C 240.365 137.778,240.316 137.841,240.401 137.917 M104.977 139.722 L 103.889 140.926 105.093 139.838 C 106.215 138.824,106.467 138.519,106.180 138.519 C 106.117 138.519,105.575 139.060,104.977 139.722 M294.444 139.005 C 294.444 139.069,294.986 139.610,295.648 140.208 L 296.852 141.296 295.764 140.093 C 294.750 138.971,294.444 138.719,294.444 139.005 M280.000 141.227 C 280.000 141.291,280.542 141.832,281.204 142.431 L 282.407 143.519 281.320 142.315 C 280.306 141.193,280.000 140.941,280.000 141.227 M260.000 150.486 C 260.000 150.550,260.542 151.092,261.204 151.690 L 262.407 152.778 261.320 151.574 C 260.306 150.452,260.000 150.200,260.000 150.486 M132.956 156.574 L 129.074 160.556 133.056 156.673 C 135.245 154.538,137.037 152.746,137.037 152.692 C 137.037 152.424,136.562 152.876,132.956 156.574 M265.556 155.741 C 266.868 157.065,268.025 158.148,268.127 158.148 C 268.229 158.148,267.238 157.065,265.926 155.741 C 264.614 154.417,263.457 153.333,263.355 153.333 C 263.253 153.333,264.243 154.417,265.556 155.741 M199.352 162.107 C 199.708 162.200,200.292 162.200,200.648 162.107 C 201.005 162.014,200.713 161.938,200.000 161.938 C 199.287 161.938,198.995 162.014,199.352 162.107 M193.634 171.112 C 193.571 173.353,193.644 175.186,193.796 175.186 C 193.949 175.186,194.074 173.352,194.074 171.111 C 194.074 165.844,193.784 165.844,193.634 171.112 M206.064 171.296 C 206.065 173.537,206.126 174.406,206.200 173.227 C 206.274 172.048,206.273 170.215,206.199 169.153 C 206.124 168.091,206.064 169.056,206.064 171.296 M180.370 181.667 C 179.471 182.583,178.818 183.333,178.920 183.333 C 179.022 183.333,179.841 182.583,180.741 181.667 C 181.640 180.750,182.293 180.000,182.191 180.000 C 182.089 180.000,181.270 180.750,180.370 181.667 M19.780 200.185 C 19.780 203.444,19.837 204.728,19.905 203.038 C 19.974 201.348,19.974 198.681,19.905 197.112 C 19.835 195.543,19.779 196.926,19.780 200.185 M380.101 196.296 C 380.101 197.213,380.173 197.588,380.261 197.130 C 380.350 196.671,380.350 195.921,380.261 195.463 C 380.173 195.005,380.101 195.380,380.101 196.296 M173.460 200.556 C 173.462 202.185,173.527 202.806,173.605 201.935 C 173.683 201.064,173.682 199.730,173.603 198.972 C 173.523 198.213,173.459 198.926,173.460 200.556 M380.111 203.704 C 380.111 204.824,380.180 205.282,380.265 204.722 C 380.350 204.162,380.350 203.245,380.265 202.685 C 380.180 202.125,380.111 202.583,380.111 203.704 M74.160 206.296 C 74.160 207.009,74.236 207.301,74.329 206.944 C 74.423 206.588,74.423 206.005,74.329 205.648 C 74.236 205.292,74.160 205.583,74.160 206.296 M313.797 210.185 C 313.801 211.000,313.877 211.290,313.966 210.829 C 314.054 210.368,314.051 209.702,313.958 209.348 C 313.865 208.993,313.793 209.370,313.797 210.185 M73.434 212.963 C 73.434 213.880,73.506 214.255,73.595 213.796 C 73.683 213.338,73.683 212.588,73.595 212.130 C 73.506 211.671,73.434 212.046,73.434 212.963 M106.027 213.333 C 106.027 214.250,106.099 214.625,106.187 214.167 C 106.276 213.708,106.276 212.958,106.187 212.500 C 106.099 212.042,106.027 212.417,106.027 213.333 M314.175 213.333 C 314.175 214.250,314.247 214.625,314.335 214.167 C 314.424 213.708,314.424 212.958,314.335 212.500 C 314.247 212.042,314.175 212.417,314.175 213.333 M281.945 213.519 C 281.949 214.333,282.025 214.623,282.114 214.162 C 282.202 213.702,282.199 213.035,282.106 212.681 C 282.014 212.327,281.941 212.704,281.945 213.519 M282.341 217.778 C 282.341 219.102,282.408 219.644,282.490 218.981 C 282.572 218.319,282.572 217.236,282.490 216.574 C 282.408 215.912,282.341 216.454,282.341 217.778 M314.587 220.370 C 314.587 222.917,314.646 223.958,314.719 222.685 C 314.791 221.412,314.791 219.329,314.719 218.056 C 314.646 216.782,314.587 217.824,314.587 220.370 M105.708 222.593 C 105.708 226.157,105.763 227.616,105.831 225.833 C 105.899 224.051,105.899 221.134,105.831 219.352 C 105.763 217.569,105.708 219.028,105.708 222.593 M208.519 220.556 C 209.028 220.847,209.611 221.085,209.815 221.085 C 210.019 221.085,209.769 220.847,209.259 220.556 C 208.750 220.264,208.167 220.026,207.963 220.026 C 207.759 220.026,208.009 220.264,208.519 220.556 M326.796 224.444 C 326.796 226.176,326.860 226.884,326.938 226.019 C 327.016 225.153,327.016 223.736,326.938 222.870 C 326.860 222.005,326.796 222.713,326.796 224.444 M282.328 226.481 C 282.331 227.500,282.403 227.873,282.488 227.310 C 282.573 226.747,282.571 225.913,282.483 225.458 C 282.395 225.002,282.325 225.463,282.328 226.481 M220.370 227.963 C 221.477 229.083,222.465 230.000,222.567 230.000 C 222.669 230.000,221.847 229.083,220.741 227.963 C 219.634 226.843,218.646 225.926,218.544 225.926 C 218.442 225.926,219.264 226.843,220.370 227.963 M314.571 228.704 C 314.573 230.333,314.638 230.954,314.716 230.083 C 314.794 229.212,314.793 227.878,314.714 227.120 C 314.634 226.361,314.570 227.074,314.571 228.704 M281.945 230.556 C 281.949 231.370,282.025 231.660,282.114 231.199 C 282.202 230.739,282.199 230.072,282.106 229.718 C 282.014 229.364,281.941 229.741,281.945 230.556 M106.032 231.667 C 106.035 232.685,106.107 233.058,106.192 232.495 C 106.277 231.932,106.275 231.099,106.187 230.643 C 106.099 230.188,106.029 230.648,106.032 231.667 M73.444 233.333 C 73.444 234.454,73.514 234.912,73.599 234.352 C 73.683 233.792,73.683 232.875,73.599 232.315 C 73.514 231.755,73.444 232.213,73.444 233.333 M314.175 234.074 C 314.175 234.991,314.247 235.366,314.335 234.907 C 314.424 234.449,314.424 233.699,314.335 233.241 C 314.247 232.782,314.175 233.157,314.175 234.074 M106.390 235.000 C 106.394 235.815,106.470 236.105,106.558 235.644 C 106.647 235.183,106.643 234.516,106.551 234.162 C 106.458 233.808,106.386 234.185,106.390 235.000 M73.797 236.852 C 73.801 237.667,73.877 237.956,73.966 237.496 C 74.054 237.035,74.051 236.368,73.958 236.014 C 73.865 235.660,73.793 236.037,73.797 236.852 M74.160 240.000 C 74.160 240.713,74.236 241.005,74.329 240.648 C 74.423 240.292,74.423 239.708,74.329 239.352 C 74.236 238.995,74.160 239.287,74.160 240.000 M177.870 244.700 C 178.227 244.793,178.810 244.793,179.167 244.700 C 179.523 244.607,179.231 244.530,178.519 244.530 C 177.806 244.530,177.514 244.607,177.870 244.700 M215.312 247.222 C 215.313 248.852,215.379 249.472,215.457 248.601 C 215.535 247.730,215.534 246.397,215.454 245.638 C 215.375 244.880,215.311 245.593,215.312 247.222 M173.959 246.389 C 172.806 247.531,172.801 247.545,173.872 246.670 C 174.492 246.162,175.158 245.620,175.352 245.466 C 175.545 245.311,175.585 245.185,175.439 245.185 C 175.293 245.185,174.627 245.727,173.959 246.389 M193.475 277.222 C 193.475 279.667,193.535 280.618,193.608 279.337 C 193.680 278.056,193.680 276.056,193.607 274.893 C 193.533 273.730,193.474 274.778,193.475 277.222 M260.538 278.241 L 259.074 279.815 260.648 278.351 C 262.112 276.989,262.392 276.667,262.112 276.667 C 262.052 276.667,261.343 277.375,260.538 278.241 M142.593 280.556 C 144.520 282.491,146.180 284.074,146.282 284.074 C 146.384 284.074,144.890 282.491,142.963 280.556 C 141.036 278.620,139.376 277.037,139.274 277.037 C 139.172 277.037,140.665 278.620,142.593 280.556 M254.795 283.981 L 253.519 285.370 254.907 284.094 C 256.200 282.906,256.467 282.593,256.184 282.593 C 256.122 282.593,255.497 283.218,254.795 283.981 M133.318 289.722 C 134.853 291.357,135.185 291.652,135.185 291.373 C 135.185 291.314,134.394 290.522,133.426 289.614 L 131.667 287.963 133.318 289.722 M285.347 299.352 L 284.259 300.556 285.463 299.468 C 286.125 298.869,286.667 298.328,286.667 298.264 C 286.667 297.978,286.361 298.230,285.347 299.352 M119.630 304.630 C 121.966 306.972,123.960 308.889,124.062 308.889 C 124.164 308.889,122.336 306.972,120.000 304.630 C 117.664 302.287,115.669 300.370,115.568 300.370 C 115.466 300.370,117.294 302.287,119.630 304.630 M280.176 304.907 L 277.222 307.963 280.278 305.009 C 283.116 302.265,283.502 301.852,283.232 301.852 C 283.176 301.852,281.801 303.227,280.176 304.907 M190.833 304.329 C 191.190 304.423,191.773 304.423,192.130 304.329 C 192.486 304.236,192.194 304.160,191.481 304.160 C 190.769 304.160,190.477 304.236,190.833 304.329 M209.352 304.329 C 209.708 304.423,210.292 304.423,210.648 304.329 C 211.005 304.236,210.713 304.160,210.000 304.160 C 209.287 304.160,208.995 304.236,209.352 304.329 M194.722 304.712 C 195.384 304.795,196.468 304.795,197.130 304.712 C 197.792 304.630,197.250 304.563,195.926 304.563 C 194.602 304.563,194.060 304.630,194.722 304.712 M203.973 304.712 C 204.631 304.794,205.797 304.795,206.566 304.715 C 207.334 304.635,206.796 304.568,205.370 304.566 C 203.944 304.564,203.316 304.630,203.973 304.712 M275.165 309.537 L 273.889 310.926 275.278 309.650 C 276.571 308.462,276.837 308.148,276.554 308.148 C 276.492 308.148,275.867 308.773,275.165 309.537 M124.815 309.375 C 124.815 309.439,125.356 309.981,126.019 310.579 L 127.222 311.667 126.134 310.463 C 125.120 309.341,124.815 309.089,124.815 309.375 M110.741 313.148 C 111.847 314.269,112.836 315.185,112.938 315.185 C 113.040 315.185,112.218 314.269,111.111 313.148 C 110.005 312.028,109.016 311.111,108.914 311.111 C 108.812 311.111,109.634 312.028,110.741 313.148 M61.481 315.671 C 61.481 315.735,62.023 316.277,62.685 316.875 L 63.889 317.963 62.801 316.759 C 61.787 315.637,61.481 315.385,61.481 315.671 M196.204 317.669 C 196.662 317.757,197.412 317.757,197.870 317.669 C 198.329 317.581,197.954 317.508,197.037 317.508 C 196.120 317.508,195.745 317.581,196.204 317.669 M202.870 317.669 C 203.329 317.757,204.079 317.757,204.537 317.669 C 204.995 317.581,204.620 317.508,203.704 317.508 C 202.787 317.508,202.412 317.581,202.870 317.669 M65.185 319.815 C 65.876 320.528,66.525 321.111,66.627 321.111 C 66.729 321.111,66.247 320.528,65.556 319.815 C 64.865 319.102,64.216 318.519,64.114 318.519 C 64.012 318.519,64.494 319.102,65.185 319.815 M334.236 320.093 L 333.148 321.296 334.352 320.208 C 335.014 319.610,335.556 319.069,335.556 319.005 C 335.556 318.719,335.250 318.971,334.236 320.093 M69.074 324.074 C 70.284 325.296,71.356 326.296,71.458 326.296 C 71.560 326.296,70.654 325.296,69.444 324.074 C 68.235 322.852,67.162 321.852,67.060 321.852 C 66.958 321.852,67.865 322.852,69.074 324.074 M329.989 324.722 L 327.593 327.222 330.093 324.826 C 331.468 323.507,332.593 322.382,332.593 322.326 C 332.593 322.053,332.215 322.400,329.989 324.722 M324.249 330.463 L 321.667 333.148 324.352 330.565 C 326.846 328.167,327.206 327.778,326.935 327.778 C 326.878 327.778,325.670 328.986,324.249 330.463 M75.741 330.741 C 76.744 331.759,77.648 332.593,77.750 332.593 C 77.852 332.593,77.114 331.759,76.111 330.741 C 75.108 329.722,74.204 328.889,74.102 328.889 C 74.000 328.889,74.738 329.722,75.741 330.741 M319.610 334.722 L 318.333 336.111 319.722 334.835 C 321.015 333.647,321.281 333.333,320.999 333.333 C 320.937 333.333,320.312 333.958,319.610 334.722 M79.259 333.820 C 79.259 333.883,79.801 334.425,80.463 335.023 L 81.667 336.111 80.579 334.907 C 79.565 333.785,79.259 333.533,79.259 333.820 M316.458 337.500 L 315.370 338.704 316.574 337.616 C 317.236 337.018,317.778 336.476,317.778 336.412 C 317.778 336.126,317.472 336.378,316.458 337.500 M186.759 336.922 C 187.116 337.015,187.699 337.015,188.056 336.922 C 188.412 336.829,188.120 336.753,187.407 336.753 C 186.694 336.753,186.403 336.829,186.759 336.922 M211.764 336.929 C 212.224 337.017,212.891 337.014,213.245 336.921 C 213.599 336.828,213.222 336.756,212.407 336.760 C 211.593 336.764,211.303 336.840,211.764 336.929 M190.463 337.302 C 191.023 337.387,191.940 337.387,192.500 337.302 C 193.060 337.217,192.602 337.148,191.481 337.148 C 190.361 337.148,189.903 337.217,190.463 337.302 M207.505 337.303 C 208.068 337.388,208.901 337.386,209.357 337.298 C 209.812 337.210,209.352 337.140,208.333 337.143 C 207.315 337.146,206.942 337.218,207.505 337.303 M197.514 337.682 C 198.692 337.755,200.526 337.755,201.588 337.680 C 202.650 337.605,201.685 337.545,199.444 337.546 C 197.204 337.547,196.335 337.608,197.514 337.682 M195.099 349.898 C 195.765 349.980,196.765 349.979,197.321 349.894 C 197.878 349.810,197.333 349.742,196.111 349.744 C 194.889 349.746,194.434 349.816,195.099 349.898 M202.870 349.891 C 203.329 349.979,204.079 349.979,204.537 349.891 C 204.995 349.803,204.620 349.731,203.704 349.731 C 202.787 349.731,202.412 349.803,202.870 349.891 M195.463 380.261 C 195.921 380.350,196.671 380.350,197.130 380.261 C 197.588 380.173,197.213 380.101,196.296 380.101 C 195.380 380.101,195.005 380.173,195.463 380.261 M202.690 380.266 C 203.253 380.351,204.087 380.349,204.542 380.261 C 204.998 380.173,204.537 380.103,203.519 380.106 C 202.500 380.109,202.127 380.181,202.690 380.266 " stroke="none" fill="#675fec" fill-rule="evenodd"></path></g></svg>